ISO-10303-21;
HEADER;
/* Generated by software containing ST-Developer
 * from STEP Tools, Inc. (www.steptools.com) 
 */
/* OPTION: using custom renumber hook */

FILE_DESCRIPTION(
/* description */ ('STEP AP242 Edition 2',
'CAx-IF Rec.Pracs.---Representation and Presentation of Product Manufa
cturing Information (PMI)---4.0---2014-10-13',
'CAx-IF Rec.Pracs.---3D Tessellated Geometry---0.4---2014-09-14','2;1',
'CAx-IF Rec.Pracs.---User Defined Attributes---1.5---2016-08-15'),
/* implementation_level */ '2;1');

FILE_NAME(
/* name */ '6a1f97b0385642aa53c14259',
/* time_stamp */ '2026-06-03T02:55:44Z',
/* author */ (''),
/* organization */ (''),
/* preprocessor_version */ 'ST-DEVELOPER v20',
/* originating_system */ 'ONSHAPE BY PTC INC, 1.215',
/* authorisation */ '  ');

FILE_SCHEMA (('AP242_MANAGED_MODEL_BASED_3D_ENGINEERING_MIM_LF { 1 0 10303 442 3 1 4 }'));
ENDSEC;

DATA;
#10=CONTEXT_DEPENDENT_SHAPE_REPRESENTATION(#14,#1047);
#11=CONTEXT_DEPENDENT_SHAPE_REPRESENTATION(#15,#1049);
#12=NEXT_ASSEMBLY_USAGE_OCCURRENCE('NAUO1','Part 1','Part 1',#1050,#1051,
'');
#13=NEXT_ASSEMBLY_USAGE_OCCURRENCE('NAUO2','Part 2','Part 2',#1050,#1052,
'');
#14=(
REPRESENTATION_RELATIONSHIP(' ',' ',#661,#660)
REPRESENTATION_RELATIONSHIP_WITH_TRANSFORMATION(#16)
SHAPE_REPRESENTATION_RELATIONSHIP()
);
#15=(
REPRESENTATION_RELATIONSHIP(' ',' ',#662,#660)
REPRESENTATION_RELATIONSHIP_WITH_TRANSFORMATION(#17)
SHAPE_REPRESENTATION_RELATIONSHIP()
);
#16=ITEM_DEFINED_TRANSFORMATION(' ',' ',#663,#690);
#17=ITEM_DEFINED_TRANSFORMATION(' ',' ',#663,#705);
#18=SHAPE_REPRESENTATION_RELATIONSHIP('','',#661,#20);
#19=SHAPE_REPRESENTATION_RELATIONSHIP('','',#662,#21);
#20=ADVANCED_BREP_SHAPE_REPRESENTATION('',(#655),#1037);
#21=ADVANCED_BREP_SHAPE_REPRESENTATION('',(#656),#1038);
#22=CIRCLE('',#674,0.0015);
#23=CIRCLE('',#675,0.0015);
#24=CIRCLE('',#677,0.0015);
#25=CIRCLE('',#678,0.0015);
#26=CIRCLE('',#680,0.0015);
#27=CIRCLE('',#681,0.0015);
#28=CIRCLE('',#686,0.0015);
#29=CIRCLE('',#687,0.0015);
#30=CYLINDRICAL_SURFACE('',#673,0.0015);
#31=CYLINDRICAL_SURFACE('',#676,0.0015);
#32=CYLINDRICAL_SURFACE('',#679,0.0015);
#33=CYLINDRICAL_SURFACE('',#685,0.0015);
#34=ORIENTED_EDGE('',*,*,#194,.F.);
#35=ORIENTED_EDGE('',*,*,#195,.F.);
#36=ORIENTED_EDGE('',*,*,#196,.T.);
#37=ORIENTED_EDGE('',*,*,#197,.T.);
#38=ORIENTED_EDGE('',*,*,#198,.T.);
#39=ORIENTED_EDGE('',*,*,#199,.F.);
#40=ORIENTED_EDGE('',*,*,#200,.F.);
#41=ORIENTED_EDGE('',*,*,#195,.T.);
#42=ORIENTED_EDGE('',*,*,#201,.T.);
#43=ORIENTED_EDGE('',*,*,#202,.F.);
#44=ORIENTED_EDGE('',*,*,#203,.F.);
#45=ORIENTED_EDGE('',*,*,#199,.T.);
#46=ORIENTED_EDGE('',*,*,#204,.F.);
#47=ORIENTED_EDGE('',*,*,#205,.F.);
#48=ORIENTED_EDGE('',*,*,#206,.T.);
#49=ORIENTED_EDGE('',*,*,#207,.T.);
#50=ORIENTED_EDGE('',*,*,#208,.T.);
#51=ORIENTED_EDGE('',*,*,#209,.F.);
#52=ORIENTED_EDGE('',*,*,#210,.F.);
#53=ORIENTED_EDGE('',*,*,#205,.T.);
#54=ORIENTED_EDGE('',*,*,#211,.T.);
#55=ORIENTED_EDGE('',*,*,#212,.F.);
#56=ORIENTED_EDGE('',*,*,#213,.F.);
#57=ORIENTED_EDGE('',*,*,#209,.T.);
#58=ORIENTED_EDGE('',*,*,#214,.F.);
#59=ORIENTED_EDGE('',*,*,#215,.F.);
#60=ORIENTED_EDGE('',*,*,#216,.T.);
#61=ORIENTED_EDGE('',*,*,#217,.T.);
#62=ORIENTED_EDGE('',*,*,#218,.F.);
#63=ORIENTED_EDGE('',*,*,#219,.F.);
#64=ORIENTED_EDGE('',*,*,#220,.T.);
#65=ORIENTED_EDGE('',*,*,#215,.T.);
#66=ORIENTED_EDGE('',*,*,#221,.F.);
#67=ORIENTED_EDGE('',*,*,#222,.F.);
#68=ORIENTED_EDGE('',*,*,#223,.T.);
#69=ORIENTED_EDGE('',*,*,#219,.T.);
#70=ORIENTED_EDGE('',*,*,#224,.T.);
#71=ORIENTED_EDGE('',*,*,#225,.F.);
#72=ORIENTED_EDGE('',*,*,#226,.T.);
#73=ORIENTED_EDGE('',*,*,#227,.F.);
#74=ORIENTED_EDGE('',*,*,#228,.T.);
#75=ORIENTED_EDGE('',*,*,#229,.F.);
#76=ORIENTED_EDGE('',*,*,#230,.F.);
#77=ORIENTED_EDGE('',*,*,#197,.F.);
#78=ORIENTED_EDGE('',*,*,#231,.T.);
#79=ORIENTED_EDGE('',*,*,#202,.T.);
#80=ORIENTED_EDGE('',*,*,#232,.F.);
#81=ORIENTED_EDGE('',*,*,#207,.F.);
#82=ORIENTED_EDGE('',*,*,#233,.T.);
#83=ORIENTED_EDGE('',*,*,#212,.T.);
#84=ORIENTED_EDGE('',*,*,#234,.F.);
#85=ORIENTED_EDGE('',*,*,#217,.F.);
#86=ORIENTED_EDGE('',*,*,#235,.T.);
#87=ORIENTED_EDGE('',*,*,#222,.T.);
#88=ORIENTED_EDGE('',*,*,#236,.T.);
#89=ORIENTED_EDGE('',*,*,#237,.F.);
#90=ORIENTED_EDGE('',*,*,#216,.F.);
#91=ORIENTED_EDGE('',*,*,#220,.F.);
#92=ORIENTED_EDGE('',*,*,#223,.F.);
#93=ORIENTED_EDGE('',*,*,#235,.F.);
#94=ORIENTED_EDGE('',*,*,#206,.F.);
#95=ORIENTED_EDGE('',*,*,#210,.T.);
#96=ORIENTED_EDGE('',*,*,#213,.T.);
#97=ORIENTED_EDGE('',*,*,#233,.F.);
#98=ORIENTED_EDGE('',*,*,#196,.F.);
#99=ORIENTED_EDGE('',*,*,#200,.T.);
#100=ORIENTED_EDGE('',*,*,#203,.T.);
#101=ORIENTED_EDGE('',*,*,#231,.F.);
#102=ORIENTED_EDGE('',*,*,#228,.F.);
#103=ORIENTED_EDGE('',*,*,#226,.F.);
#104=ORIENTED_EDGE('',*,*,#224,.F.);
#105=ORIENTED_EDGE('',*,*,#236,.F.);
#106=ORIENTED_EDGE('',*,*,#214,.T.);
#107=ORIENTED_EDGE('',*,*,#234,.T.);
#108=ORIENTED_EDGE('',*,*,#221,.T.);
#109=ORIENTED_EDGE('',*,*,#218,.T.);
#110=ORIENTED_EDGE('',*,*,#204,.T.);
#111=ORIENTED_EDGE('',*,*,#232,.T.);
#112=ORIENTED_EDGE('',*,*,#211,.F.);
#113=ORIENTED_EDGE('',*,*,#208,.F.);
#114=ORIENTED_EDGE('',*,*,#194,.T.);
#115=ORIENTED_EDGE('',*,*,#230,.T.);
#116=ORIENTED_EDGE('',*,*,#201,.F.);
#117=ORIENTED_EDGE('',*,*,#198,.F.);
#118=ORIENTED_EDGE('',*,*,#229,.T.);
#119=ORIENTED_EDGE('',*,*,#227,.T.);
#120=ORIENTED_EDGE('',*,*,#225,.T.);
#121=ORIENTED_EDGE('',*,*,#237,.T.);
#122=ORIENTED_EDGE('',*,*,#238,.T.);
#123=ORIENTED_EDGE('',*,*,#239,.F.);
#124=ORIENTED_EDGE('',*,*,#240,.F.);
#125=ORIENTED_EDGE('',*,*,#241,.T.);
#126=ORIENTED_EDGE('',*,*,#242,.F.);
#127=ORIENTED_EDGE('',*,*,#243,.T.);
#128=ORIENTED_EDGE('',*,*,#244,.T.);
#129=ORIENTED_EDGE('',*,*,#245,.F.);
#130=ORIENTED_EDGE('',*,*,#246,.F.);
#131=ORIENTED_EDGE('',*,*,#247,.F.);
#132=ORIENTED_EDGE('',*,*,#248,.T.);
#133=ORIENTED_EDGE('',*,*,#249,.T.);
#134=ORIENTED_EDGE('',*,*,#250,.F.);
#135=ORIENTED_EDGE('',*,*,#251,.T.);
#136=ORIENTED_EDGE('',*,*,#252,.T.);
#137=ORIENTED_EDGE('',*,*,#253,.F.);
#138=ORIENTED_EDGE('',*,*,#254,.T.);
#139=ORIENTED_EDGE('',*,*,#255,.F.);
#140=ORIENTED_EDGE('',*,*,#256,.F.);
#141=ORIENTED_EDGE('',*,*,#257,.T.);
#142=ORIENTED_EDGE('',*,*,#258,.T.);
#143=ORIENTED_EDGE('',*,*,#241,.F.);
#144=ORIENTED_EDGE('',*,*,#259,.F.);
#145=ORIENTED_EDGE('',*,*,#255,.T.);
#146=ORIENTED_EDGE('',*,*,#260,.F.);
#147=ORIENTED_EDGE('',*,*,#261,.F.);
#148=ORIENTED_EDGE('',*,*,#262,.T.);
#149=ORIENTED_EDGE('',*,*,#247,.T.);
#150=ORIENTED_EDGE('',*,*,#263,.T.);
#151=ORIENTED_EDGE('',*,*,#264,.F.);
#152=ORIENTED_EDGE('',*,*,#265,.F.);
#153=ORIENTED_EDGE('',*,*,#261,.T.);
#154=ORIENTED_EDGE('',*,*,#266,.T.);
#155=ORIENTED_EDGE('',*,*,#249,.F.);
#156=ORIENTED_EDGE('',*,*,#267,.F.);
#157=ORIENTED_EDGE('',*,*,#264,.T.);
#158=ORIENTED_EDGE('',*,*,#268,.T.);
#159=ORIENTED_EDGE('',*,*,#257,.F.);
#160=ORIENTED_EDGE('',*,*,#269,.F.);
#161=ORIENTED_EDGE('',*,*,#239,.T.);
#162=ORIENTED_EDGE('',*,*,#262,.F.);
#163=ORIENTED_EDGE('',*,*,#265,.T.);
#164=ORIENTED_EDGE('',*,*,#267,.T.);
#165=ORIENTED_EDGE('',*,*,#248,.F.);
#166=ORIENTED_EDGE('',*,*,#256,.T.);
#167=ORIENTED_EDGE('',*,*,#259,.T.);
#168=ORIENTED_EDGE('',*,*,#240,.T.);
#169=ORIENTED_EDGE('',*,*,#269,.T.);
#170=ORIENTED_EDGE('',*,*,#260,.T.);
#171=ORIENTED_EDGE('',*,*,#246,.T.);
#172=ORIENTED_EDGE('',*,*,#266,.F.);
#173=ORIENTED_EDGE('',*,*,#263,.F.);
#174=ORIENTED_EDGE('',*,*,#254,.F.);
#175=ORIENTED_EDGE('',*,*,#268,.F.);
#176=ORIENTED_EDGE('',*,*,#238,.F.);
#177=ORIENTED_EDGE('',*,*,#258,.F.);
#178=ORIENTED_EDGE('',*,*,#242,.T.);
#179=ORIENTED_EDGE('',*,*,#270,.T.);
#180=ORIENTED_EDGE('',*,*,#251,.F.);
#181=ORIENTED_EDGE('',*,*,#271,.F.);
#182=ORIENTED_EDGE('',*,*,#271,.T.);
#183=ORIENTED_EDGE('',*,*,#250,.T.);
#184=ORIENTED_EDGE('',*,*,#272,.F.);
#185=ORIENTED_EDGE('',*,*,#243,.F.);
#186=ORIENTED_EDGE('',*,*,#272,.T.);
#187=ORIENTED_EDGE('',*,*,#253,.T.);
#188=ORIENTED_EDGE('',*,*,#273,.F.);
#189=ORIENTED_EDGE('',*,*,#244,.F.);
#190=ORIENTED_EDGE('',*,*,#245,.T.);
#191=ORIENTED_EDGE('',*,*,#273,.T.);
#192=ORIENTED_EDGE('',*,*,#252,.F.);
#193=ORIENTED_EDGE('',*,*,#270,.F.);
#194=EDGE_CURVE('',#274,#275,#330,.T.);
#195=EDGE_CURVE('',#276,#274,#331,.T.);
#196=EDGE_CURVE('',#276,#277,#332,.T.);
#197=EDGE_CURVE('',#277,#275,#333,.T.);
#198=EDGE_CURVE('',#274,#278,#334,.T.);
#199=EDGE_CURVE('',#279,#278,#335,.T.);
#200=EDGE_CURVE('',#276,#279,#336,.T.);
#201=EDGE_CURVE('',#278,#280,#337,.T.);
#202=EDGE_CURVE('',#281,#280,#338,.T.);
#203=EDGE_CURVE('',#279,#281,#339,.T.);
#204=EDGE_CURVE('',#282,#283,#340,.T.);
#205=EDGE_CURVE('',#284,#282,#341,.T.);
#206=EDGE_CURVE('',#284,#285,#342,.T.);
#207=EDGE_CURVE('',#285,#283,#343,.T.);
#208=EDGE_CURVE('',#282,#286,#344,.T.);
#209=EDGE_CURVE('',#287,#286,#345,.T.);
#210=EDGE_CURVE('',#284,#287,#346,.T.);
#211=EDGE_CURVE('',#286,#288,#347,.T.);
#212=EDGE_CURVE('',#289,#288,#348,.T.);
#213=EDGE_CURVE('',#287,#289,#349,.T.);
#214=EDGE_CURVE('',#290,#291,#350,.T.);
#215=EDGE_CURVE('',#292,#290,#351,.T.);
#216=EDGE_CURVE('',#292,#293,#352,.T.);
#217=EDGE_CURVE('',#293,#291,#353,.T.);
#218=EDGE_CURVE('',#294,#290,#354,.T.);
#219=EDGE_CURVE('',#295,#294,#355,.T.);
#220=EDGE_CURVE('',#295,#292,#356,.T.);
#221=EDGE_CURVE('',#296,#294,#357,.T.);
#222=EDGE_CURVE('',#297,#296,#358,.T.);
#223=EDGE_CURVE('',#297,#295,#359,.T.);
#224=EDGE_CURVE('',#298,#298,#22,.T.);
#225=EDGE_CURVE('',#299,#299,#23,.T.);
#226=EDGE_CURVE('',#300,#300,#24,.T.);
#227=EDGE_CURVE('',#301,#301,#25,.T.);
#228=EDGE_CURVE('',#302,#302,#26,.T.);
#229=EDGE_CURVE('',#303,#303,#27,.T.);
#230=EDGE_CURVE('',#275,#280,#360,.T.);
#231=EDGE_CURVE('',#277,#281,#361,.T.);
#232=EDGE_CURVE('',#283,#288,#362,.T.);
#233=EDGE_CURVE('',#285,#289,#363,.T.);
#234=EDGE_CURVE('',#291,#296,#364,.T.);
#235=EDGE_CURVE('',#293,#297,#365,.T.);
#236=EDGE_CURVE('',#304,#304,#28,.T.);
#237=EDGE_CURVE('',#305,#305,#29,.T.);
#238=EDGE_CURVE('',#306,#307,#366,.T.);
#239=EDGE_CURVE('',#308,#307,#367,.T.);
#240=EDGE_CURVE('',#309,#308,#368,.T.);
#241=EDGE_CURVE('',#309,#306,#369,.T.);
#242=EDGE_CURVE('',#310,#311,#370,.T.);
#243=EDGE_CURVE('',#310,#312,#371,.T.);
#244=EDGE_CURVE('',#312,#313,#372,.T.);
#245=EDGE_CURVE('',#311,#313,#373,.T.);
#246=EDGE_CURVE('',#314,#315,#374,.T.);
#247=EDGE_CURVE('',#316,#314,#375,.T.);
#248=EDGE_CURVE('',#316,#317,#376,.T.);
#249=EDGE_CURVE('',#317,#315,#377,.T.);
#250=EDGE_CURVE('',#318,#319,#378,.T.);
#251=EDGE_CURVE('',#318,#320,#379,.T.);
#252=EDGE_CURVE('',#320,#321,#380,.T.);
#253=EDGE_CURVE('',#319,#321,#381,.T.);
#254=EDGE_CURVE('',#322,#323,#382,.T.);
#255=EDGE_CURVE('',#324,#323,#383,.T.);
#256=EDGE_CURVE('',#325,#324,#384,.T.);
#257=EDGE_CURVE('',#325,#322,#385,.T.);
#258=EDGE_CURVE('',#323,#306,#386,.T.);
#259=EDGE_CURVE('',#324,#309,#387,.T.);
#260=EDGE_CURVE('',#326,#314,#388,.T.);
#261=EDGE_CURVE('',#327,#326,#389,.T.);
#262=EDGE_CURVE('',#327,#316,#390,.T.);
#263=EDGE_CURVE('',#326,#328,#391,.T.);
#264=EDGE_CURVE('',#329,#328,#392,.T.);
#265=EDGE_CURVE('',#327,#329,#393,.T.);
#266=EDGE_CURVE('',#328,#315,#394,.T.);
#267=EDGE_CURVE('',#329,#317,#395,.T.);
#268=EDGE_CURVE('',#307,#322,#396,.T.);
#269=EDGE_CURVE('',#308,#325,#397,.T.);
#270=EDGE_CURVE('',#311,#320,#398,.T.);
#271=EDGE_CURVE('',#310,#318,#399,.T.);
#272=EDGE_CURVE('',#312,#319,#400,.T.);
#273=EDGE_CURVE('',#313,#321,#401,.T.);
#274=VERTEX_POINT('',#867);
#275=VERTEX_POINT('',#868);
#276=VERTEX_POINT('',#870);
#277=VERTEX_POINT('',#872);
#278=VERTEX_POINT('',#876);
#279=VERTEX_POINT('',#878);
#280=VERTEX_POINT('',#882);
#281=VERTEX_POINT('',#884);
#282=VERTEX_POINT('',#888);
#283=VERTEX_POINT('',#889);
#284=VERTEX_POINT('',#891);
#285=VERTEX_POINT('',#893);
#286=VERTEX_POINT('',#897);
#287=VERTEX_POINT('',#899);
#288=VERTEX_POINT('',#903);
#289=VERTEX_POINT('',#905);
#290=VERTEX_POINT('',#909);
#291=VERTEX_POINT('',#910);
#292=VERTEX_POINT('',#912);
#293=VERTEX_POINT('',#914);
#294=VERTEX_POINT('',#918);
#295=VERTEX_POINT('',#920);
#296=VERTEX_POINT('',#924);
#297=VERTEX_POINT('',#926);
#298=VERTEX_POINT('',#930);
#299=VERTEX_POINT('',#932);
#300=VERTEX_POINT('',#935);
#301=VERTEX_POINT('',#937);
#302=VERTEX_POINT('',#940);
#303=VERTEX_POINT('',#942);
#304=VERTEX_POINT('',#954);
#305=VERTEX_POINT('',#956);
#306=VERTEX_POINT('',#962);
#307=VERTEX_POINT('',#963);
#308=VERTEX_POINT('',#965);
#309=VERTEX_POINT('',#967);
#310=VERTEX_POINT('',#970);
#311=VERTEX_POINT('',#971);
#312=VERTEX_POINT('',#973);
#313=VERTEX_POINT('',#975);
#314=VERTEX_POINT('',#979);
#315=VERTEX_POINT('',#980);
#316=VERTEX_POINT('',#982);
#317=VERTEX_POINT('',#984);
#318=VERTEX_POINT('',#987);
#319=VERTEX_POINT('',#988);
#320=VERTEX_POINT('',#990);
#321=VERTEX_POINT('',#992);
#322=VERTEX_POINT('',#996);
#323=VERTEX_POINT('',#997);
#324=VERTEX_POINT('',#999);
#325=VERTEX_POINT('',#1001);
#326=VERTEX_POINT('',#1008);
#327=VERTEX_POINT('',#1010);
#328=VERTEX_POINT('',#1014);
#329=VERTEX_POINT('',#1016);
#330=LINE('',#866,#402);
#331=LINE('',#869,#403);
#332=LINE('',#871,#404);
#333=LINE('',#873,#405);
#334=LINE('',#875,#406);
#335=LINE('',#877,#407);
#336=LINE('',#879,#408);
#337=LINE('',#881,#409);
#338=LINE('',#883,#410);
#339=LINE('',#885,#411);
#340=LINE('',#887,#412);
#341=LINE('',#890,#413);
#342=LINE('',#892,#414);
#343=LINE('',#894,#415);
#344=LINE('',#896,#416);
#345=LINE('',#898,#417);
#346=LINE('',#900,#418);
#347=LINE('',#902,#419);
#348=LINE('',#904,#420);
#349=LINE('',#906,#421);
#350=LINE('',#908,#422);
#351=LINE('',#911,#423);
#352=LINE('',#913,#424);
#353=LINE('',#915,#425);
#354=LINE('',#917,#426);
#355=LINE('',#919,#427);
#356=LINE('',#921,#428);
#357=LINE('',#923,#429);
#358=LINE('',#925,#430);
#359=LINE('',#927,#431);
#360=LINE('',#944,#432);
#361=LINE('',#945,#433);
#362=LINE('',#947,#434);
#363=LINE('',#948,#435);
#364=LINE('',#950,#436);
#365=LINE('',#951,#437);
#366=LINE('',#961,#438);
#367=LINE('',#964,#439);
#368=LINE('',#966,#440);
#369=LINE('',#968,#441);
#370=LINE('',#969,#442);
#371=LINE('',#972,#443);
#372=LINE('',#974,#444);
#373=LINE('',#976,#445);
#374=LINE('',#978,#446);
#375=LINE('',#981,#447);
#376=LINE('',#983,#448);
#377=LINE('',#985,#449);
#378=LINE('',#986,#450);
#379=LINE('',#989,#451);
#380=LINE('',#991,#452);
#381=LINE('',#993,#453);
#382=LINE('',#995,#454);
#383=LINE('',#998,#455);
#384=LINE('',#1000,#456);
#385=LINE('',#1002,#457);
#386=LINE('',#1004,#458);
#387=LINE('',#1005,#459);
#388=LINE('',#1007,#460);
#389=LINE('',#1009,#461);
#390=LINE('',#1011,#462);
#391=LINE('',#1013,#463);
#392=LINE('',#1015,#464);
#393=LINE('',#1017,#465);
#394=LINE('',#1019,#466);
#395=LINE('',#1020,#467);
#396=LINE('',#1022,#468);
#397=LINE('',#1023,#469);
#398=LINE('',#1027,#470);
#399=LINE('',#1028,#471);
#400=LINE('',#1030,#472);
#401=LINE('',#1032,#473);
#402=VECTOR('',#710,1.);
#403=VECTOR('',#711,1.);
#404=VECTOR('',#712,1.);
#405=VECTOR('',#713,1.);
#406=VECTOR('',#716,1.);
#407=VECTOR('',#717,1.);
#408=VECTOR('',#718,1.);
#409=VECTOR('',#721,1.);
#410=VECTOR('',#722,1.);
#411=VECTOR('',#723,1.);
#412=VECTOR('',#726,1.);
#413=VECTOR('',#727,1.);
#414=VECTOR('',#728,1.);
#415=VECTOR('',#729,1.);
#416=VECTOR('',#732,1.);
#417=VECTOR('',#733,1.);
#418=VECTOR('',#734,1.);
#419=VECTOR('',#737,1.);
#420=VECTOR('',#738,1.);
#421=VECTOR('',#739,1.);
#422=VECTOR('',#742,1.);
#423=VECTOR('',#743,1.);
#424=VECTOR('',#744,1.);
#425=VECTOR('',#745,1.);
#426=VECTOR('',#748,1.);
#427=VECTOR('',#749,1.);
#428=VECTOR('',#750,1.);
#429=VECTOR('',#753,1.);
#430=VECTOR('',#754,1.);
#431=VECTOR('',#755,1.);
#432=VECTOR('',#776,1.);
#433=VECTOR('',#777,1.);
#434=VECTOR('',#780,1.);
#435=VECTOR('',#781,1.);
#436=VECTOR('',#784,1.);
#437=VECTOR('',#785,1.);
#438=VECTOR('',#800,1.);
#439=VECTOR('',#801,1.);
#440=VECTOR('',#802,1.);
#441=VECTOR('',#803,1.);
#442=VECTOR('',#804,1.);
#443=VECTOR('',#805,1.);
#444=VECTOR('',#806,1.);
#445=VECTOR('',#807,1.);
#446=VECTOR('',#810,1.);
#447=VECTOR('',#811,1.);
#448=VECTOR('',#812,1.);
#449=VECTOR('',#813,1.);
#450=VECTOR('',#814,1.);
#451=VECTOR('',#815,1.);
#452=VECTOR('',#816,1.);
#453=VECTOR('',#817,1.);
#454=VECTOR('',#820,1.);
#455=VECTOR('',#821,1.);
#456=VECTOR('',#822,1.);
#457=VECTOR('',#823,1.);
#458=VECTOR('',#826,1.);
#459=VECTOR('',#827,1.);
#460=VECTOR('',#830,1.);
#461=VECTOR('',#831,1.);
#462=VECTOR('',#832,1.);
#463=VECTOR('',#835,1.);
#464=VECTOR('',#836,1.);
#465=VECTOR('',#837,1.);
#466=VECTOR('',#840,1.);
#467=VECTOR('',#841,1.);
#468=VECTOR('',#844,1.);
#469=VECTOR('',#845,1.);
#470=VECTOR('',#852,1.);
#471=VECTOR('',#853,1.);
#472=VECTOR('',#856,1.);
#473=VECTOR('',#859,1.);
#474=EDGE_LOOP('',(#34,#35,#36,#37));
#475=EDGE_LOOP('',(#38,#39,#40,#41));
#476=EDGE_LOOP('',(#42,#43,#44,#45));
#477=EDGE_LOOP('',(#46,#47,#48,#49));
#478=EDGE_LOOP('',(#50,#51,#52,#53));
#479=EDGE_LOOP('',(#54,#55,#56,#57));
#480=EDGE_LOOP('',(#58,#59,#60,#61));
#481=EDGE_LOOP('',(#62,#63,#64,#65));
#482=EDGE_LOOP('',(#66,#67,#68,#69));
#483=EDGE_LOOP('',(#70));
#484=EDGE_LOOP('',(#71));
#485=EDGE_LOOP('',(#72));
#486=EDGE_LOOP('',(#73));
#487=EDGE_LOOP('',(#74));
#488=EDGE_LOOP('',(#75));
#489=EDGE_LOOP('',(#76,#77,#78,#79));
#490=EDGE_LOOP('',(#80,#81,#82,#83));
#491=EDGE_LOOP('',(#84,#85,#86,#87));
#492=EDGE_LOOP('',(#88));
#493=EDGE_LOOP('',(#89));
#494=EDGE_LOOP('',(#90,#91,#92,#93));
#495=EDGE_LOOP('',(#94,#95,#96,#97));
#496=EDGE_LOOP('',(#98,#99,#100,#101));
#497=EDGE_LOOP('',(#102));
#498=EDGE_LOOP('',(#103));
#499=EDGE_LOOP('',(#104));
#500=EDGE_LOOP('',(#105));
#501=EDGE_LOOP('',(#106,#107,#108,#109));
#502=EDGE_LOOP('',(#110,#111,#112,#113));
#503=EDGE_LOOP('',(#114,#115,#116,#117));
#504=EDGE_LOOP('',(#118));
#505=EDGE_LOOP('',(#119));
#506=EDGE_LOOP('',(#120));
#507=EDGE_LOOP('',(#121));
#508=EDGE_LOOP('',(#122,#123,#124,#125));
#509=EDGE_LOOP('',(#126,#127,#128,#129));
#510=EDGE_LOOP('',(#130,#131,#132,#133));
#511=EDGE_LOOP('',(#134,#135,#136,#137));
#512=EDGE_LOOP('',(#138,#139,#140,#141));
#513=EDGE_LOOP('',(#142,#143,#144,#145));
#514=EDGE_LOOP('',(#146,#147,#148,#149));
#515=EDGE_LOOP('',(#150,#151,#152,#153));
#516=EDGE_LOOP('',(#154,#155,#156,#157));
#517=EDGE_LOOP('',(#158,#159,#160,#161));
#518=EDGE_LOOP('',(#162,#163,#164,#165));
#519=EDGE_LOOP('',(#166,#167,#168,#169));
#520=EDGE_LOOP('',(#170,#171,#172,#173));
#521=EDGE_LOOP('',(#174,#175,#176,#177));
#522=EDGE_LOOP('',(#178,#179,#180,#181));
#523=EDGE_LOOP('',(#182,#183,#184,#185));
#524=EDGE_LOOP('',(#186,#187,#188,#189));
#525=EDGE_LOOP('',(#190,#191,#192,#193));
#526=FACE_BOUND('',#474,.T.);
#527=FACE_BOUND('',#475,.T.);
#528=FACE_BOUND('',#476,.T.);
#529=FACE_BOUND('',#477,.T.);
#530=FACE_BOUND('',#478,.T.);
#531=FACE_BOUND('',#479,.T.);
#532=FACE_BOUND('',#480,.T.);
#533=FACE_BOUND('',#481,.T.);
#534=FACE_BOUND('',#482,.T.);
#535=FACE_BOUND('',#483,.T.);
#536=FACE_BOUND('',#484,.T.);
#537=FACE_BOUND('',#485,.T.);
#538=FACE_BOUND('',#486,.T.);
#539=FACE_BOUND('',#487,.T.);
#540=FACE_BOUND('',#488,.T.);
#541=FACE_BOUND('',#489,.T.);
#542=FACE_BOUND('',#490,.T.);
#543=FACE_BOUND('',#491,.T.);
#544=FACE_BOUND('',#492,.T.);
#545=FACE_BOUND('',#493,.T.);
#546=FACE_BOUND('',#494,.T.);
#547=FACE_BOUND('',#495,.T.);
#548=FACE_BOUND('',#496,.T.);
#549=FACE_BOUND('',#497,.T.);
#550=FACE_BOUND('',#498,.T.);
#551=FACE_BOUND('',#499,.T.);
#552=FACE_BOUND('',#500,.T.);
#553=FACE_BOUND('',#501,.T.);
#554=FACE_BOUND('',#502,.T.);
#555=FACE_BOUND('',#503,.T.);
#556=FACE_BOUND('',#504,.T.);
#557=FACE_BOUND('',#505,.T.);
#558=FACE_BOUND('',#506,.T.);
#559=FACE_BOUND('',#507,.T.);
#560=FACE_BOUND('',#508,.T.);
#561=FACE_BOUND('',#509,.T.);
#562=FACE_BOUND('',#510,.T.);
#563=FACE_BOUND('',#511,.T.);
#564=FACE_BOUND('',#512,.T.);
#565=FACE_BOUND('',#513,.T.);
#566=FACE_BOUND('',#514,.T.);
#567=FACE_BOUND('',#515,.T.);
#568=FACE_BOUND('',#516,.T.);
#569=FACE_BOUND('',#517,.T.);
#570=FACE_BOUND('',#518,.T.);
#571=FACE_BOUND('',#519,.T.);
#572=FACE_BOUND('',#520,.T.);
#573=FACE_BOUND('',#521,.T.);
#574=FACE_BOUND('',#522,.T.);
#575=FACE_BOUND('',#523,.T.);
#576=FACE_BOUND('',#524,.T.);
#577=FACE_BOUND('',#525,.T.);
#578=PLANE('',#664);
#579=PLANE('',#665);
#580=PLANE('',#666);
#581=PLANE('',#667);
#582=PLANE('',#668);
#583=PLANE('',#669);
#584=PLANE('',#670);
#585=PLANE('',#671);
#586=PLANE('',#672);
#587=PLANE('',#682);
#588=PLANE('',#683);
#589=PLANE('',#684);
#590=PLANE('',#688);
#591=PLANE('',#689);
#592=PLANE('',#691);
#593=PLANE('',#692);
#594=PLANE('',#693);
#595=PLANE('',#694);
#596=PLANE('',#695);
#597=PLANE('',#696);
#598=PLANE('',#697);
#599=PLANE('',#698);
#600=PLANE('',#699);
#601=PLANE('',#700);
#602=PLANE('',#701);
#603=PLANE('',#702);
#604=PLANE('',#703);
#605=PLANE('',#704);
#606=ADVANCED_FACE('',(#526),#578,.T.);
#607=ADVANCED_FACE('',(#527),#579,.F.);
#608=ADVANCED_FACE('',(#528),#580,.F.);
#609=ADVANCED_FACE('',(#529),#581,.T.);
#610=ADVANCED_FACE('',(#530),#582,.F.);
#611=ADVANCED_FACE('',(#531),#583,.F.);
#612=ADVANCED_FACE('',(#532),#584,.T.);
#613=ADVANCED_FACE('',(#533),#585,.T.);
#614=ADVANCED_FACE('',(#534),#586,.T.);
#615=ADVANCED_FACE('',(#535,#536),#30,.F.);
#616=ADVANCED_FACE('',(#537,#538),#31,.F.);
#617=ADVANCED_FACE('',(#539,#540),#32,.F.);
#618=ADVANCED_FACE('',(#541),#587,.T.);
#619=ADVANCED_FACE('',(#542),#588,.T.);
#620=ADVANCED_FACE('',(#543),#589,.T.);
#621=ADVANCED_FACE('',(#544,#545),#33,.F.);
#622=ADVANCED_FACE('',(#546,#547,#548,#549,#550,#551,#552),#590,.T.);
#623=ADVANCED_FACE('',(#553,#554,#555,#556,#557,#558,#559),#591,.F.);
#624=ADVANCED_FACE('',(#560,#561),#592,.F.);
#625=ADVANCED_FACE('',(#562,#563),#593,.T.);
#626=ADVANCED_FACE('',(#564),#594,.F.);
#627=ADVANCED_FACE('',(#565),#595,.F.);
#628=ADVANCED_FACE('',(#566),#596,.T.);
#629=ADVANCED_FACE('',(#567),#597,.F.);
#630=ADVANCED_FACE('',(#568),#598,.F.);
#631=ADVANCED_FACE('',(#569),#599,.F.);
#632=ADVANCED_FACE('',(#570,#571),#600,.T.);
#633=ADVANCED_FACE('',(#572,#573),#601,.F.);
#634=ADVANCED_FACE('',(#574),#602,.T.);
#635=ADVANCED_FACE('',(#575),#603,.F.);
#636=ADVANCED_FACE('',(#576),#604,.F.);
#637=ADVANCED_FACE('',(#577),#605,.T.);
#638=CLOSED_SHELL('',(#606,#607,#608,#609,#610,#611,#612,#613,#614,#615,
#616,#617,#618,#619,#620,#621,#622,#623));
#639=CLOSED_SHELL('',(#624,#625,#626,#627,#628,#629,#630,#631,#632,#633,
#634,#635,#636,#637));
#640=STYLED_ITEM('',(#642),#655);
#641=STYLED_ITEM('',(#643),#656);
#642=PRESENTATION_STYLE_ASSIGNMENT((#644));
#643=PRESENTATION_STYLE_ASSIGNMENT((#645));
#644=SURFACE_STYLE_USAGE(.BOTH.,#646);
#645=SURFACE_STYLE_USAGE(.BOTH.,#647);
#646=SURFACE_SIDE_STYLE('',(#648));
#647=SURFACE_SIDE_STYLE('',(#649));
#648=SURFACE_STYLE_FILL_AREA(#650);
#649=SURFACE_STYLE_FILL_AREA(#651);
#650=FILL_AREA_STYLE('',(#652));
#651=FILL_AREA_STYLE('',(#653));
#652=FILL_AREA_STYLE_COLOUR('',#654);
#653=FILL_AREA_STYLE_COLOUR('',#654);
#654=COLOUR_RGB('',0.615686274509804,0.811764705882353,0.929411764705882);
#655=MANIFOLD_SOLID_BREP('Part 1',#638);
#656=MANIFOLD_SOLID_BREP('Part 2',#639);
#657=SHAPE_DEFINITION_REPRESENTATION(#1045,#660);
#658=SHAPE_DEFINITION_REPRESENTATION(#1046,#661);
#659=SHAPE_DEFINITION_REPRESENTATION(#1048,#662);
#660=SHAPE_REPRESENTATION('Assembly 1',(#663,#690,#705),#1036);
#661=SHAPE_REPRESENTATION('Part 1',(#663),#1037);
#662=SHAPE_REPRESENTATION('Part 2',(#663),#1038);
#663=AXIS2_PLACEMENT_3D('',#864,#706,#707);
#664=AXIS2_PLACEMENT_3D('',#865,#708,#709);
#665=AXIS2_PLACEMENT_3D('',#874,#714,#715);
#666=AXIS2_PLACEMENT_3D('',#880,#719,#720);
#667=AXIS2_PLACEMENT_3D('',#886,#724,#725);
#668=AXIS2_PLACEMENT_3D('',#895,#730,#731);
#669=AXIS2_PLACEMENT_3D('',#901,#735,#736);
#670=AXIS2_PLACEMENT_3D('',#907,#740,#741);
#671=AXIS2_PLACEMENT_3D('',#916,#746,#747);
#672=AXIS2_PLACEMENT_3D('',#922,#751,#752);
#673=AXIS2_PLACEMENT_3D('',#928,#756,#757);
#674=AXIS2_PLACEMENT_3D('',#929,#758,#759);
#675=AXIS2_PLACEMENT_3D('',#931,#760,#761);
#676=AXIS2_PLACEMENT_3D('',#933,#762,#763);
#677=AXIS2_PLACEMENT_3D('',#934,#764,#765);
#678=AXIS2_PLACEMENT_3D('',#936,#766,#767);
#679=AXIS2_PLACEMENT_3D('',#938,#768,#769);
#680=AXIS2_PLACEMENT_3D('',#939,#770,#771);
#681=AXIS2_PLACEMENT_3D('',#941,#772,#773);
#682=AXIS2_PLACEMENT_3D('',#943,#774,#775);
#683=AXIS2_PLACEMENT_3D('',#946,#778,#779);
#684=AXIS2_PLACEMENT_3D('',#949,#782,#783);
#685=AXIS2_PLACEMENT_3D('',#952,#786,#787);
#686=AXIS2_PLACEMENT_3D('',#953,#788,#789);
#687=AXIS2_PLACEMENT_3D('',#955,#790,#791);
#688=AXIS2_PLACEMENT_3D('',#957,#792,#793);
#689=AXIS2_PLACEMENT_3D('',#958,#794,#795);
#690=AXIS2_PLACEMENT_3D('',#959,#796,#797);
#691=AXIS2_PLACEMENT_3D('',#960,#798,#799);
#692=AXIS2_PLACEMENT_3D('',#977,#808,#809);
#693=AXIS2_PLACEMENT_3D('',#994,#818,#819);
#694=AXIS2_PLACEMENT_3D('',#1003,#824,#825);
#695=AXIS2_PLACEMENT_3D('',#1006,#828,#829);
#696=AXIS2_PLACEMENT_3D('',#1012,#833,#834);
#697=AXIS2_PLACEMENT_3D('',#1018,#838,#839);
#698=AXIS2_PLACEMENT_3D('',#1021,#842,#843);
#699=AXIS2_PLACEMENT_3D('',#1024,#846,#847);
#700=AXIS2_PLACEMENT_3D('',#1025,#848,#849);
#701=AXIS2_PLACEMENT_3D('',#1026,#850,#851);
#702=AXIS2_PLACEMENT_3D('',#1029,#854,#855);
#703=AXIS2_PLACEMENT_3D('',#1031,#857,#858);
#704=AXIS2_PLACEMENT_3D('',#1033,#860,#861);
#705=AXIS2_PLACEMENT_3D('',#1034,#862,#863);
#706=DIRECTION('',(0.,0.,1.));
#707=DIRECTION('',(1.,0.,0.));
#708=DIRECTION('',(1.,0.,0.));
#709=DIRECTION('',(0.,0.,-1.));
#710=DIRECTION('',(0.,-1.,0.));
#711=DIRECTION('',(0.,0.,-1.));
#712=DIRECTION('',(0.,-1.,0.));
#713=DIRECTION('',(0.,0.,-1.));
#714=DIRECTION('',(-1.7347234759768E-16,1.,0.));
#715=DIRECTION('',(-1.,-1.7347234759768E-16,0.));
#716=DIRECTION('',(1.,1.7347234759768E-16,0.));
#717=DIRECTION('',(0.,0.,-1.));
#718=DIRECTION('',(1.,1.7347234759768E-16,0.));
#719=DIRECTION('',(1.,0.,0.));
#720=DIRECTION('',(0.,0.,-1.));
#721=DIRECTION('',(0.,-1.,0.));
#722=DIRECTION('',(0.,0.,-1.));
#723=DIRECTION('',(0.,-1.,0.));
#724=DIRECTION('',(1.,0.,0.));
#725=DIRECTION('',(0.,0.,-1.));
#726=DIRECTION('',(0.,-1.,0.));
#727=DIRECTION('',(0.,0.,-1.));
#728=DIRECTION('',(0.,-1.,0.));
#729=DIRECTION('',(0.,0.,-1.));
#730=DIRECTION('',(0.,1.,0.));
#731=DIRECTION('',(0.,0.,1.));
#732=DIRECTION('',(1.,0.,0.));
#733=DIRECTION('',(0.,0.,-1.));
#734=DIRECTION('',(1.,0.,0.));
#735=DIRECTION('',(1.,0.,0.));
#736=DIRECTION('',(0.,0.,-1.));
#737=DIRECTION('',(0.,-1.,0.));
#738=DIRECTION('',(0.,0.,-1.));
#739=DIRECTION('',(0.,-1.,0.));
#740=DIRECTION('',(0.,1.,0.));
#741=DIRECTION('',(0.,0.,1.));
#742=DIRECTION('',(1.,0.,0.));
#743=DIRECTION('',(0.,0.,-1.));
#744=DIRECTION('',(1.,0.,0.));
#745=DIRECTION('',(0.,0.,-1.));
#746=DIRECTION('',(-1.,-4.62592926927149E-16,0.));
#747=DIRECTION('',(4.62592926927149E-16,-1.,0.));
#748=DIRECTION('',(-4.62592926927149E-16,1.,0.));
#749=DIRECTION('',(0.,0.,-1.));
#750=DIRECTION('',(-4.62592926927149E-16,1.,0.));
#751=DIRECTION('',(1.28498035257541E-16,-1.,0.));
#752=DIRECTION('',(1.,1.28498035257541E-16,0.));
#753=DIRECTION('',(-1.,-1.28498035257541E-16,0.));
#754=DIRECTION('',(0.,0.,-1.));
#755=DIRECTION('',(-1.,-1.28498035257541E-16,0.));
#756=DIRECTION('',(0.,0.,-1.));
#757=DIRECTION('',(-1.,0.,0.));
#758=DIRECTION('',(0.,0.,1.));
#759=DIRECTION('',(1.,0.,0.));
#760=DIRECTION('',(0.,0.,1.));
#761=DIRECTION('',(1.,0.,0.));
#762=DIRECTION('',(0.,0.,-1.));
#763=DIRECTION('',(-1.,0.,0.));
#764=DIRECTION('',(0.,0.,1.));
#765=DIRECTION('',(1.,0.,0.));
#766=DIRECTION('',(0.,0.,1.));
#767=DIRECTION('',(1.,0.,0.));
#768=DIRECTION('',(0.,0.,-1.));
#769=DIRECTION('',(-1.,0.,0.));
#770=DIRECTION('',(0.,0.,1.));
#771=DIRECTION('',(1.,0.,0.));
#772=DIRECTION('',(0.,0.,1.));
#773=DIRECTION('',(1.,0.,0.));
#774=DIRECTION('',(-1.7347234759768E-16,1.,0.));
#775=DIRECTION('',(-1.,-1.7347234759768E-16,0.));
#776=DIRECTION('',(1.,1.7347234759768E-16,0.));
#777=DIRECTION('',(1.,1.7347234759768E-16,0.));
#778=DIRECTION('',(0.,1.,0.));
#779=DIRECTION('',(0.,0.,1.));
#780=DIRECTION('',(1.,0.,0.));
#781=DIRECTION('',(1.,0.,0.));
#782=DIRECTION('',(1.,0.,0.));
#783=DIRECTION('',(0.,0.,-1.));
#784=DIRECTION('',(0.,-1.,0.));
#785=DIRECTION('',(0.,-1.,0.));
#786=DIRECTION('',(0.,0.,-1.));
#787=DIRECTION('',(-1.,0.,0.));
#788=DIRECTION('',(0.,0.,1.));
#789=DIRECTION('',(1.,0.,0.));
#790=DIRECTION('',(0.,0.,1.));
#791=DIRECTION('',(1.,0.,0.));
#792=DIRECTION('',(0.,0.,1.));
#793=DIRECTION('',(1.,0.,0.));
#794=DIRECTION('',(0.,0.,1.));
#795=DIRECTION('',(1.,0.,0.));
#796=DIRECTION('',(0.,0.,1.));
#797=DIRECTION('',(1.,0.,0.));
#798=DIRECTION('',(1.,0.,0.));
#799=DIRECTION('',(0.,0.,-1.));
#800=DIRECTION('',(0.,-1.,0.));
#801=DIRECTION('',(0.,0.,-1.));
#802=DIRECTION('',(0.,-1.,0.));
#803=DIRECTION('',(0.,0.,-1.));
#804=DIRECTION('',(0.,1.,2.31296463463574E-16));
#805=DIRECTION('',(0.,0.,-1.));
#806=DIRECTION('',(0.,1.,1.7347234759768E-16));
#807=DIRECTION('',(0.,0.,-1.));
#808=DIRECTION('',(1.,8.39382327085552E-16,0.));
#809=DIRECTION('',(-8.39382327085552E-16,1.,0.));
#810=DIRECTION('',(8.39382327085552E-16,-1.,0.));
#811=DIRECTION('',(0.,0.,-1.));
#812=DIRECTION('',(8.39382327085552E-16,-1.,0.));
#813=DIRECTION('',(0.,0.,-1.));
#814=DIRECTION('',(0.,0.,-1.));
#815=DIRECTION('',(-8.39382327085552E-16,1.,2.31296463463574E-16));
#816=DIRECTION('',(0.,0.,-1.));
#817=DIRECTION('',(-8.39382327085552E-16,1.,1.7347234759768E-16));
#818=DIRECTION('',(-1.,-4.62592926927149E-16,0.));
#819=DIRECTION('',(4.62592926927149E-16,-1.,0.));
#820=DIRECTION('',(-4.62592926927149E-16,1.,0.));
#821=DIRECTION('',(0.,0.,-1.));
#822=DIRECTION('',(-4.62592926927149E-16,1.,0.));
#823=DIRECTION('',(0.,0.,-1.));
#824=DIRECTION('',(0.,1.,0.));
#825=DIRECTION('',(0.,0.,1.));
#826=DIRECTION('',(1.,0.,0.));
#827=DIRECTION('',(1.,0.,0.));
#828=DIRECTION('',(0.,1.,0.));
#829=DIRECTION('',(0.,0.,1.));
#830=DIRECTION('',(1.,0.,0.));
#831=DIRECTION('',(0.,0.,-1.));
#832=DIRECTION('',(1.,0.,0.));
#833=DIRECTION('',(1.,8.95341148891255E-16,0.));
#834=DIRECTION('',(-8.95341148891255E-16,1.,0.));
#835=DIRECTION('',(8.95341148891255E-16,-1.,0.));
#836=DIRECTION('',(0.,0.,-1.));
#837=DIRECTION('',(8.95341148891255E-16,-1.,0.));
#838=DIRECTION('',(0.,1.,0.));
#839=DIRECTION('',(0.,0.,1.));
#840=DIRECTION('',(1.,0.,0.));
#841=DIRECTION('',(1.,0.,0.));
#842=DIRECTION('',(1.28498035257541E-16,-1.,0.));
#843=DIRECTION('',(1.,1.28498035257541E-16,0.));
#844=DIRECTION('',(-1.,-1.28498035257541E-16,0.));
#845=DIRECTION('',(-1.,-1.28498035257541E-16,0.));
#846=DIRECTION('',(0.,0.,1.));
#847=DIRECTION('',(1.,0.,0.));
#848=DIRECTION('',(0.,0.,1.));
#849=DIRECTION('',(1.,0.,0.));
#850=DIRECTION('',(-1.94146163748713E-31,2.31296463463574E-16,-1.));
#851=DIRECTION('',(0.,1.,2.31296463463574E-16));
#852=DIRECTION('',(1.,8.39382327085552E-16,0.));
#853=DIRECTION('',(1.,8.39382327085552E-16,0.));
#854=DIRECTION('',(8.39382327085552E-16,-1.,0.));
#855=DIRECTION('',(1.,8.39382327085552E-16,0.));
#856=DIRECTION('',(1.,8.39382327085552E-16,0.));
#857=DIRECTION('',(-1.45609622811535E-31,1.7347234759768E-16,-1.));
#858=DIRECTION('',(0.,1.,1.7347234759768E-16));
#859=DIRECTION('',(1.,8.39382327085552E-16,0.));
#860=DIRECTION('',(8.39382327085552E-16,-1.,0.));
#861=DIRECTION('',(1.,8.39382327085552E-16,0.));
#862=DIRECTION('',(0.,0.,1.));
#863=DIRECTION('',(1.,0.,0.));
#864=CARTESIAN_POINT('',(0.,0.,0.));
#865=CARTESIAN_POINT('',(-0.0632850235208869,0.0286451606267644,0.001));
#866=CARTESIAN_POINT('',(-0.0632850235208869,0.0286451606267644,0.));
#867=CARTESIAN_POINT('',(-0.0632850235208869,0.0303951606267643,0.));
#868=CARTESIAN_POINT('',(-0.0632850235208869,0.0268951606267644,0.));
#869=CARTESIAN_POINT('',(-0.0632850235208869,0.0303951606267643,0.001));
#870=CARTESIAN_POINT('',(-0.0632850235208869,0.0303951606267643,0.001));
#871=CARTESIAN_POINT('',(-0.0632850235208869,0.0286451606267644,0.001));
#872=CARTESIAN_POINT('',(-0.0632850235208869,0.0268951606267644,0.001));
#873=CARTESIAN_POINT('',(-0.0632850235208869,0.0268951606267644,0.001));
#874=CARTESIAN_POINT('',(-0.0432850235208869,0.0303951606267643,0.001));
#875=CARTESIAN_POINT('',(-0.0432850235208869,0.0303951606267643,0.));
#876=CARTESIAN_POINT('',(-0.0232850235208869,0.0303951606267643,0.));
#877=CARTESIAN_POINT('',(-0.0232850235208869,0.0303951606267643,0.001));
#878=CARTESIAN_POINT('',(-0.0232850235208869,0.0303951606267643,0.001));
#879=CARTESIAN_POINT('',(-0.0432850235208869,0.0303951606267643,0.001));
#880=CARTESIAN_POINT('',(-0.0232850235208869,0.0286451606267644,0.001));
#881=CARTESIAN_POINT('',(-0.0232850235208869,0.0286451606267644,0.));
#882=CARTESIAN_POINT('',(-0.0232850235208869,0.0268951606267644,0.));
#883=CARTESIAN_POINT('',(-0.0232850235208869,0.0268951606267644,0.001));
#884=CARTESIAN_POINT('',(-0.0232850235208869,0.0268951606267644,0.001));
#885=CARTESIAN_POINT('',(-0.0232850235208869,0.0286451606267644,0.001));
#886=CARTESIAN_POINT('',(-0.0632850235208869,0.0541451606267643,0.001));
#887=CARTESIAN_POINT('',(-0.0632850235208869,0.0541451606267643,0.));
#888=CARTESIAN_POINT('',(-0.0632850235208869,0.0558951606267643,0.));
#889=CARTESIAN_POINT('',(-0.0632850235208869,0.0523951606267643,0.));
#890=CARTESIAN_POINT('',(-0.0632850235208869,0.0558951606267643,0.001));
#891=CARTESIAN_POINT('',(-0.0632850235208869,0.0558951606267643,0.001));
#892=CARTESIAN_POINT('',(-0.0632850235208869,0.0541451606267643,0.001));
#893=CARTESIAN_POINT('',(-0.0632850235208869,0.0523951606267643,0.001));
#894=CARTESIAN_POINT('',(-0.0632850235208869,0.0523951606267643,0.001));
#895=CARTESIAN_POINT('',(-0.0432850235208869,0.0558951606267643,0.001));
#896=CARTESIAN_POINT('',(-0.0432850235208869,0.0558951606267643,0.));
#897=CARTESIAN_POINT('',(-0.0232850235208869,0.0558951606267643,0.));
#898=CARTESIAN_POINT('',(-0.0232850235208869,0.0558951606267643,0.001));
#899=CARTESIAN_POINT('',(-0.0232850235208869,0.0558951606267643,0.001));
#900=CARTESIAN_POINT('',(-0.0432850235208869,0.0558951606267643,0.001));
#901=CARTESIAN_POINT('',(-0.0232850235208869,0.0541451606267643,0.001));
#902=CARTESIAN_POINT('',(-0.0232850235208869,0.0541451606267643,0.));
#903=CARTESIAN_POINT('',(-0.0232850235208869,0.0523951606267643,0.));
#904=CARTESIAN_POINT('',(-0.0232850235208869,0.0523951606267643,0.001));
#905=CARTESIAN_POINT('',(-0.0232850235208869,0.0523951606267643,0.001));
#906=CARTESIAN_POINT('',(-0.0232850235208869,0.0541451606267643,0.001));
#907=CARTESIAN_POINT('',(-0.0404850235208869,0.0563951606267643,0.001));
#908=CARTESIAN_POINT('',(-0.0404850235208869,0.0563951606267643,0.));
#909=CARTESIAN_POINT('',(-0.0674850235208869,0.0563951606267643,0.));
#910=CARTESIAN_POINT('',(-0.0134850235208869,0.0563951606267644,0.));
#911=CARTESIAN_POINT('',(-0.0674850235208869,0.0563951606267643,0.001));
#912=CARTESIAN_POINT('',(-0.0674850235208869,0.0563951606267643,0.001));
#913=CARTESIAN_POINT('',(-0.0404850235208869,0.0563951606267643,0.001));
#914=CARTESIAN_POINT('',(-0.0134850235208869,0.0563951606267644,0.001));
#915=CARTESIAN_POINT('',(-0.0134850235208869,0.0563951606267644,0.001));
#916=CARTESIAN_POINT('',(-0.0674850235208869,0.0413951606267643,0.001));
#917=CARTESIAN_POINT('',(-0.0674850235208869,0.0413951606267643,0.));
#918=CARTESIAN_POINT('',(-0.0674850235208869,0.0263951606267643,0.));
#919=CARTESIAN_POINT('',(-0.0674850235208869,0.0263951606267643,0.001));
#920=CARTESIAN_POINT('',(-0.0674850235208869,0.0263951606267643,0.001));
#921=CARTESIAN_POINT('',(-0.0674850235208869,0.0413951606267643,0.001));
#922=CARTESIAN_POINT('',(-0.0404850235208869,0.0263951606267643,0.001));
#923=CARTESIAN_POINT('',(-0.0404850235208869,0.0263951606267643,0.));
#924=CARTESIAN_POINT('',(-0.0134850235208869,0.0263951606267643,0.));
#925=CARTESIAN_POINT('',(-0.0134850235208869,0.0263951606267643,0.001));
#926=CARTESIAN_POINT('',(-0.0134850235208869,0.0263951606267643,0.001));
#927=CARTESIAN_POINT('',(-0.0404850235208869,0.0263951606267643,0.001));
#928=CARTESIAN_POINT('',(-0.0184850235208869,0.0536951606267643,0.001));
#929=CARTESIAN_POINT('',(-0.0184850235208869,0.0536951606267643,0.001));
#930=CARTESIAN_POINT('',(-0.0169850235208869,0.0536951606267643,0.001));
#931=CARTESIAN_POINT('',(-0.0184850235208869,0.0536951606267643,0.));
#932=CARTESIAN_POINT('',(-0.0169850235208869,0.0536951606267643,0.));
#933=CARTESIAN_POINT('',(-0.0184850235208869,0.0290951606267644,0.001));
#934=CARTESIAN_POINT('',(-0.0184850235208869,0.0290951606267644,0.001));
#935=CARTESIAN_POINT('',(-0.0169850235208868,0.0290951606267644,0.001));
#936=CARTESIAN_POINT('',(-0.0184850235208869,0.0290951606267644,0.));
#937=CARTESIAN_POINT('',(-0.0169850235208868,0.0290951606267644,0.));
#938=CARTESIAN_POINT('',(-0.0649850235208869,0.0290951606267644,0.001));
#939=CARTESIAN_POINT('',(-0.0649850235208869,0.0290951606267644,0.001));
#940=CARTESIAN_POINT('',(-0.0634850235208869,0.0290951606267644,0.001));
#941=CARTESIAN_POINT('',(-0.0649850235208869,0.0290951606267644,0.));
#942=CARTESIAN_POINT('',(-0.0634850235208869,0.0290951606267644,0.));
#943=CARTESIAN_POINT('',(-0.0432850235208869,0.0268951606267644,0.001));
#944=CARTESIAN_POINT('',(-0.0432850235208869,0.0268951606267644,0.));
#945=CARTESIAN_POINT('',(-0.0432850235208869,0.0268951606267644,0.001));
#946=CARTESIAN_POINT('',(-0.0432850235208869,0.0523951606267643,0.001));
#947=CARTESIAN_POINT('',(-0.0432850235208869,0.0523951606267643,0.));
#948=CARTESIAN_POINT('',(-0.0432850235208869,0.0523951606267643,0.001));
#949=CARTESIAN_POINT('',(-0.0134850235208869,0.0413951606267643,0.001));
#950=CARTESIAN_POINT('',(-0.0134850235208869,0.0413951606267643,0.));
#951=CARTESIAN_POINT('',(-0.0134850235208869,0.0413951606267643,0.001));
#952=CARTESIAN_POINT('',(-0.0649850235208869,0.0536951606267643,0.001));
#953=CARTESIAN_POINT('',(-0.0649850235208869,0.0536951606267643,0.001));
#954=CARTESIAN_POINT('',(-0.0634850235208869,0.0536951606267643,0.001));
#955=CARTESIAN_POINT('',(-0.0649850235208869,0.0536951606267643,0.));
#956=CARTESIAN_POINT('',(-0.0634850235208869,0.0536951606267643,0.));
#957=CARTESIAN_POINT('',(-0.0404850235208869,0.0413951606267643,0.001));
#958=CARTESIAN_POINT('',(-0.0404850235208869,0.0413951606267643,0.));
#959=CARTESIAN_POINT('',(0.,0.,0.));
#960=CARTESIAN_POINT('',(-0.0134850235208869,0.0413951606267643,0.01));
#961=CARTESIAN_POINT('',(-0.0134850235208869,0.0413951606267643,0.));
#962=CARTESIAN_POINT('',(-0.0134850235208869,0.0563951606267644,0.));
#963=CARTESIAN_POINT('',(-0.0134850235208869,0.0263951606267643,0.));
#964=CARTESIAN_POINT('',(-0.0134850235208869,0.0263951606267643,0.01));
#965=CARTESIAN_POINT('',(-0.0134850235208869,0.0263951606267643,0.01));
#966=CARTESIAN_POINT('',(-0.0134850235208869,0.0413951606267643,0.01));
#967=CARTESIAN_POINT('',(-0.0134850235208869,0.0563951606267644,0.01));
#968=CARTESIAN_POINT('',(-0.0134850235208869,0.0563951606267644,0.01));
#969=CARTESIAN_POINT('',(-0.0134850235208869,0.0413951606267643,0.008));
#970=CARTESIAN_POINT('',(-0.0134850235208869,0.0338951606267643,0.008));
#971=CARTESIAN_POINT('',(-0.0134850235208869,0.0488951606267643,0.008));
#972=CARTESIAN_POINT('',(-0.0134850235208869,0.0338951606267643,0.01));
#973=CARTESIAN_POINT('',(-0.0134850235208869,0.0338951606267643,0.0015));
#974=CARTESIAN_POINT('',(-0.0134850235208869,0.0413951606267643,0.0015));
#975=CARTESIAN_POINT('',(-0.0134850235208869,0.0488951606267643,0.0015));
#976=CARTESIAN_POINT('',(-0.0134850235208869,0.0488951606267643,0.01));
#977=CARTESIAN_POINT('',(-0.0129850235208869,0.0413951606267643,0.01));
#978=CARTESIAN_POINT('',(-0.0129850235208869,0.0413951606267643,0.));
#979=CARTESIAN_POINT('',(-0.0129850235208869,0.0568951606267643,0.));
#980=CARTESIAN_POINT('',(-0.0129850235208869,0.0258951606267644,0.));
#981=CARTESIAN_POINT('',(-0.0129850235208869,0.0568951606267643,0.01));
#982=CARTESIAN_POINT('',(-0.0129850235208869,0.0568951606267643,0.01));
#983=CARTESIAN_POINT('',(-0.0129850235208869,0.0413951606267643,0.01));
#984=CARTESIAN_POINT('',(-0.0129850235208869,0.0258951606267644,0.01));
#985=CARTESIAN_POINT('',(-0.0129850235208869,0.0258951606267644,0.01));
#986=CARTESIAN_POINT('',(-0.0129850235208869,0.0338951606267643,0.00475));
#987=CARTESIAN_POINT('',(-0.0129850235208869,0.0338951606267643,0.008));
#988=CARTESIAN_POINT('',(-0.0129850235208869,0.0338951606267643,0.0015));
#989=CARTESIAN_POINT('',(-0.0129850235208869,0.0413951606267643,0.008));
#990=CARTESIAN_POINT('',(-0.0129850235208869,0.0488951606267643,0.008));
#991=CARTESIAN_POINT('',(-0.0129850235208869,0.0488951606267643,0.00475));
#992=CARTESIAN_POINT('',(-0.0129850235208869,0.0488951606267643,0.0015));
#993=CARTESIAN_POINT('',(-0.0129850235208869,0.0413951606267643,0.0015));
#994=CARTESIAN_POINT('',(-0.0674850235208869,0.0413951606267643,0.01));
#995=CARTESIAN_POINT('',(-0.0674850235208869,0.0413951606267643,0.));
#996=CARTESIAN_POINT('',(-0.0674850235208869,0.0263951606267643,0.));
#997=CARTESIAN_POINT('',(-0.0674850235208869,0.0563951606267643,0.));
#998=CARTESIAN_POINT('',(-0.0674850235208869,0.0563951606267643,0.01));
#999=CARTESIAN_POINT('',(-0.0674850235208869,0.0563951606267643,0.01));
#1000=CARTESIAN_POINT('',(-0.0674850235208869,0.0413951606267643,0.01));
#1001=CARTESIAN_POINT('',(-0.0674850235208869,0.0263951606267643,0.01));
#1002=CARTESIAN_POINT('',(-0.0674850235208869,0.0263951606267643,0.01));
#1003=CARTESIAN_POINT('',(-0.0404850235208869,0.0563951606267643,0.01));
#1004=CARTESIAN_POINT('',(-0.0404850235208869,0.0563951606267643,0.));
#1005=CARTESIAN_POINT('',(-0.0404850235208869,0.0563951606267643,0.01));
#1006=CARTESIAN_POINT('',(-0.0404850235208869,0.0568951606267643,0.01));
#1007=CARTESIAN_POINT('',(-0.0404850235208869,0.0568951606267643,0.));
#1008=CARTESIAN_POINT('',(-0.0679850235208869,0.0568951606267643,0.));
#1009=CARTESIAN_POINT('',(-0.0679850235208869,0.0568951606267643,0.01));
#1010=CARTESIAN_POINT('',(-0.0679850235208869,0.0568951606267643,0.01));
#1011=CARTESIAN_POINT('',(-0.0404850235208869,0.0568951606267643,0.01));
#1012=CARTESIAN_POINT('',(-0.0679850235208869,0.0413951606267643,0.01));
#1013=CARTESIAN_POINT('',(-0.0679850235208869,0.0413951606267643,0.));
#1014=CARTESIAN_POINT('',(-0.0679850235208869,0.0258951606267644,0.));
#1015=CARTESIAN_POINT('',(-0.0679850235208869,0.0258951606267644,0.01));
#1016=CARTESIAN_POINT('',(-0.0679850235208869,0.0258951606267644,0.01));
#1017=CARTESIAN_POINT('',(-0.0679850235208869,0.0413951606267643,0.01));
#1018=CARTESIAN_POINT('',(-0.0404850235208868,0.0258951606267644,0.01));
#1019=CARTESIAN_POINT('',(-0.0404850235208868,0.0258951606267644,0.));
#1020=CARTESIAN_POINT('',(-0.0404850235208868,0.0258951606267644,0.01));
#1021=CARTESIAN_POINT('',(-0.0404850235208869,0.0263951606267643,0.01));
#1022=CARTESIAN_POINT('',(-0.0404850235208869,0.0263951606267643,0.));
#1023=CARTESIAN_POINT('',(-0.0404850235208869,0.0263951606267643,0.01));
#1024=CARTESIAN_POINT('',(-0.0404850235208869,0.0413951606267643,0.01));
#1025=CARTESIAN_POINT('',(-0.0404850235208869,0.0413951606267643,0.));
#1026=CARTESIAN_POINT('',(-0.0383850235208869,0.0413951606267643,0.008));
#1027=CARTESIAN_POINT('',(-0.0383850235208869,0.0488951606267643,0.008));
#1028=CARTESIAN_POINT('',(-0.0383850235208869,0.0338951606267643,0.008));
#1029=CARTESIAN_POINT('',(-0.0383850235208869,0.0338951606267643,0.00475));
#1030=CARTESIAN_POINT('',(-0.0383850235208869,0.0338951606267643,0.0015));
#1031=CARTESIAN_POINT('',(-0.0383850235208869,0.0413951606267643,0.0015));
#1032=CARTESIAN_POINT('',(-0.0383850235208869,0.0488951606267643,0.0015));
#1033=CARTESIAN_POINT('',(-0.0383850235208869,0.0488951606267643,0.00475));
#1034=CARTESIAN_POINT('',(0.,0.,0.));
#1035=MECHANICAL_DESIGN_GEOMETRIC_PRESENTATION_REPRESENTATION('',(#640,
#641),#1036);
#1036=(
GEOMETRIC_REPRESENTATION_CONTEXT(3)
GLOBAL_UNCERTAINTY_ASSIGNED_CONTEXT((#1039))
GLOBAL_UNIT_ASSIGNED_CONTEXT((#1044,#1043,#1042))
REPRESENTATION_CONTEXT('Assembly 1','TOP_LEVEL_ASSEMBLY_PART')
);
#1037=(
GEOMETRIC_REPRESENTATION_CONTEXT(3)
GLOBAL_UNCERTAINTY_ASSIGNED_CONTEXT((#1040))
GLOBAL_UNIT_ASSIGNED_CONTEXT((#1044,#1043,#1042))
REPRESENTATION_CONTEXT('Part 1','COMPONENT_PART')
);
#1038=(
GEOMETRIC_REPRESENTATION_CONTEXT(3)
GLOBAL_UNCERTAINTY_ASSIGNED_CONTEXT((#1041))
GLOBAL_UNIT_ASSIGNED_CONTEXT((#1044,#1043,#1042))
REPRESENTATION_CONTEXT('Part 2','COMPONENT_PART')
);
#1039=UNCERTAINTY_MEASURE_WITH_UNIT(LENGTH_MEASURE(1.E-8),#1044,
'DISTANCE_ACCURACY_VALUE','Maximum Tolerance applied to model');
#1040=UNCERTAINTY_MEASURE_WITH_UNIT(LENGTH_MEASURE(1.E-8),#1044,
'DISTANCE_ACCURACY_VALUE','Maximum Tolerance applied to model');
#1041=UNCERTAINTY_MEASURE_WITH_UNIT(LENGTH_MEASURE(1.E-8),#1044,
'DISTANCE_ACCURACY_VALUE','Maximum Tolerance applied to model');
#1042=(
NAMED_UNIT(*)
SI_UNIT($,.STERADIAN.)
SOLID_ANGLE_UNIT()
);
#1043=(
NAMED_UNIT(*)
PLANE_ANGLE_UNIT()
SI_UNIT($,.RADIAN.)
);
#1044=(
LENGTH_UNIT()
NAMED_UNIT(*)
SI_UNIT($,.METRE.)
);
#1045=PRODUCT_DEFINITION_SHAPE('','',#1050);
#1046=PRODUCT_DEFINITION_SHAPE('','',#1051);
#1047=PRODUCT_DEFINITION_SHAPE(' ','NAUO PRDDFN',#12);
#1048=PRODUCT_DEFINITION_SHAPE('','',#1052);
#1049=PRODUCT_DEFINITION_SHAPE(' ','NAUO PRDDFN',#13);
#1050=PRODUCT_DEFINITION('','',#1056,#1053);
#1051=PRODUCT_DEFINITION('','',#1057,#1054);
#1052=PRODUCT_DEFINITION('','',#1058,#1055);
#1053=PRODUCT_DEFINITION_CONTEXT('',#1072,'design');
#1054=PRODUCT_DEFINITION_CONTEXT('',#1072,'design');
#1055=PRODUCT_DEFINITION_CONTEXT('',#1072,'design');
#1056=PRODUCT_DEFINITION_FORMATION_WITH_SPECIFIED_SOURCE('','',#1062,
 .NOT_KNOWN.);
#1057=PRODUCT_DEFINITION_FORMATION_WITH_SPECIFIED_SOURCE('','',#1063,
 .NOT_KNOWN.);
#1058=PRODUCT_DEFINITION_FORMATION_WITH_SPECIFIED_SOURCE('','',#1064,
 .NOT_KNOWN.);
#1059=PRODUCT_RELATED_PRODUCT_CATEGORY('','',(#1062));
#1060=PRODUCT_RELATED_PRODUCT_CATEGORY('','',(#1063));
#1061=PRODUCT_RELATED_PRODUCT_CATEGORY('','',(#1064));
#1062=PRODUCT('Assembly 1','Assembly 1','Assembly 1',(#1068));
#1063=PRODUCT('Part 1','Part 1','Part 1',(#1069));
#1064=PRODUCT('Part 2','Part 2','Part 2',(#1070));
#1065=PRODUCT_CATEGORY('','');
#1066=PRODUCT_CATEGORY('','');
#1067=PRODUCT_CATEGORY('','');
#1068=PRODUCT_CONTEXT('',#1072,'mechanical');
#1069=PRODUCT_CONTEXT('',#1072,'mechanical');
#1070=PRODUCT_CONTEXT('',#1072,'mechanical');
#1071=APPLICATION_PROTOCOL_DEFINITION('international standard',
'ap242_managed_model_based_3d_engineering',2020,#1072);
#1072=APPLICATION_CONTEXT('managed model based 3d engineering');
ENDSEC;
END-ISO-10303-21;
